<svg viewBox="0 0 600 600" xmlns="http://www.w3.org/2000/svg" font-family="sans-serif">
<rect width="600" height="600" fill="#0a0a12"/>
<circle cx="300.0" cy="300.0" r="9.6" fill="none" stroke="#2a2a3a" stroke-width="1" stroke-dasharray="2,3"/>
<circle cx="300.0" cy="300.0" r="17.9" fill="none" stroke="#2a2a3a" stroke-width="1" stroke-dasharray="2,3"/>
<circle cx="300.0" cy="300.0" r="24.8" fill="none" stroke="#2a2a3a" stroke-width="1" stroke-dasharray="2,3"/>
<circle cx="300.0" cy="300.0" r="37.4" fill="none" stroke="#2a2a3a" stroke-width="1" stroke-dasharray="2,3"/>
<circle cx="300.0" cy="300.0" r="130.2" fill="none" stroke="#2a2a3a" stroke-width="1" stroke-dasharray="2,3"/>
<circle cx="300.0" cy="300.0" r="232.1" fill="none" stroke="#2a2a3a" stroke-width="1" stroke-dasharray="2,3"/>
<circle cx="300.0" cy="300.0" r="9" fill="#ffd35c"/><text x="300.0" y="286.0" fill="#ffd35c" font-size="11" text-anchor="middle">Sol</text>
<circle cx="290.4" cy="300.3" r="5" fill="#9b9b9b"/>
<text x="290.4" y="291.3" fill="#9b9b9b" font-size="11" font-weight="normal" text-anchor="middle">Mercurio</text>
<circle cx="311.3" cy="313.9" r="5" fill="#d9a441"/>
<text x="311.3" y="304.9" fill="#d9a441" font-size="11" font-weight="normal" text-anchor="middle">Venus</text>
<circle cx="323.3" cy="308.4" r="5" fill="#4a90d9"/>
<text x="323.3" y="299.4" fill="#4a90d9" font-size="11" font-weight="normal" text-anchor="middle">Tierra</text>
<circle cx="312.2" cy="264.6" r="5" fill="#c1440e"/>
<text x="312.2" y="255.6" fill="#c1440e" font-size="11" font-weight="normal" text-anchor="middle">Marte</text>
<circle cx="218.2" cy="198.6" r="5" fill="#d8b98a"/>
<text x="218.2" y="189.6" fill="#d8b98a" font-size="11" font-weight="normal" text-anchor="middle">Júpiter</text>
<circle cx="528.7" cy="260.3" r="5" fill="#e0d4a8"/>
<text x="528.7" y="251.3" fill="#e0d4a8" font-size="11" font-weight="normal" text-anchor="middle">Saturno</text>
<circle cx="251.2" cy="207.6" r="7" fill="#5ee6d0"/>
<text x="251.2" y="195.6" fill="#5ee6d0" font-size="11" font-weight="bold" text-anchor="middle">3I/ATLAS</text>
<text x="16" y="26" fill="#e8e8f0" font-size="14" font-weight="bold">Sistema solar — posiciones del 03/09/2026</text>
<text x="16" y="586" fill="#6a6a7a" font-size="10">Vista cenital · distancias a escala lineal (corregidas por inclinacion real) · tamanos de cuerpos NO a escala · Fuente: JPL Horizons (NASA)</text>
</svg>